<svg xmlns="http://www.w3.org/2000/svg" width="13.2" height="10.8" viewBox="0 0 13.2 10.8">
  <path id="ic_tab_unselected_24px" d="M1,6.6H2.2V5.4H1ZM1,9H2.2V7.8H1ZM1,4.2H2.2V3A1.2,1.2,0,0,0,1,4.2Zm4.8,9.6H7V12.6H5.8ZM1,11.4H2.2V10.2H1Zm1.2,2.4V12.6H1A1.2,1.2,0,0,0,2.2,13.8ZM13,3H8.2V6.6h6V4.2A1.2,1.2,0,0,0,13,3Zm0,8.4h1.2V10.2H13ZM5.8,4.2H7V3H5.8ZM3.4,13.8H4.6V12.6H3.4Zm0-9.6H4.6V3H3.4ZM13,13.8a1.2,1.2,0,0,0,1.2-1.2H13ZM13,9h1.2V7.8H13ZM8.2,13.8H9.4V12.6H8.2Zm2.4,0h1.2V12.6H10.6Z" transform="translate(-1 -3)" fill="#fff"/>
</svg>
